# xmcd CD database file
#
# Track frame offsets:
#	150
#	20338
#	46625
#	66813
#
# Disc length: 1239 seconds
#
# Revision: 19
# Processed by: cddbd v1.5.1PL2 Copyright (c) Steve Scherf et al.
# Submitted via: CDex 1.60beta1
#
DISCID=2604d504
DTITLE=SMAP - BANG! BANG! バカンス！
DYEAR=2005
DGENRE=JPop
TTITLE0=BANG! BANG! バカンス！
TTITLE1=優しい言葉
TTITLE2=BANG! BANG! バカンス！ (back track)
TTITLE3=優しい言葉 (back track)
EXTD=YEAR: 2005
EXTT0=
EXTT1=
EXTT2=
EXTT3=
PLAYORDER=
